<?xml version="1.0" encoding="UTF-8" standalone="no"?>
<!-- Created with Inkscape (http://www.inkscape.org/) -->

<svg
   version="1.1"
   id="svg2"
   xml:space="preserve"
   width="2560"
   height="1440"
   viewBox="0 0 2560 1440"
   sodipodi:docname="VHF LOGO.ai"
   xmlns:inkscape="http://www.inkscape.org/namespaces/inkscape"
   xmlns:sodipodi="http://sodipodi.sourceforge.net/DTD/sodipodi-0.dtd"
   xmlns="http://www.w3.org/2000/svg"
   xmlns:svg="http://www.w3.org/2000/svg"><defs
     id="defs6"><clipPath
       clipPathUnits="userSpaceOnUse"
       id="clipPath18"><path
         d="M 0,1080 H 1920 V 0 H 0 Z"
         id="path16" /></clipPath><clipPath
       clipPathUnits="userSpaceOnUse"
       id="clipPath76"><path
         d="M 0,1080 H 1920 V 0 H 0 Z"
         id="path74" /></clipPath></defs><sodipodi:namedview
     id="namedview4"
     pagecolor="#ffffff"
     bordercolor="#666666"
     borderopacity="1.0"
     inkscape:pageshadow="2"
     inkscape:pageopacity="0.0"
     inkscape:pagecheckerboard="0" /><g
     id="g8"
     inkscape:groupmode="layer"
     inkscape:label="VHF LOGO"
     transform="matrix(1.3333333,0,0,-1.3333333,0,1440)"><path
       d="M 0.718,0 H 1919.281 V 1080 H 0.718 Z"
       style="fill:#000000;fill-opacity:1;fill-rule:nonzero;stroke:none"
       id="path10" /><g
       id="g12"><g
         id="g14"
         clip-path="url(#clipPath18)"><path
           d="M 1919.282,0 H 0.718 v 1080 h 1918.564 z"
           style="fill:none;stroke:#000000;stroke-width:1;stroke-linecap:butt;stroke-linejoin:miter;stroke-miterlimit:10;stroke-dasharray:none;stroke-opacity:1"
           id="path20" /><g
           id="g22"
           transform="translate(526.6102,899.6266)"><path
             d="m 0,0 c -0.578,-0.057 -1.157,-0.099 -1.734,-0.164 -0.501,-0.057 -0.95,-0.019 -1.375,0.058 -5.104,-0.144 -10.215,-0.149 -15.33,-0.124 -22.551,-20.953 -44.765,-42.668 -66.616,-65.197 -38.757,-39.974 -74.843,-82.576 -108.23,-127.788 -33.4,-45.226 -63.256,-93.366 -89.583,-144.418 -26.326,-51.066 -47.294,-105.769 -62.891,-164.11 -5.37,32.671 -8.296,67.243 -8.775,103.718 -0.492,36.46 0.365,73.658 2.559,111.595 2.194,37.924 5.484,75.711 9.872,113.347 4.389,37.636 8.776,74.245 13.164,109.845 0.971,6.414 0.845,12.254 -0.367,17.504 -1.222,5.252 -4.513,9.328 -9.872,12.254 -9.267,2.914 -16.945,1.313 -23.035,-4.813 -6.101,-6.128 -10.363,-13.869 -12.798,-23.195 -8.295,-37.35 -14.626,-77.461 -19.013,-120.349 -4.388,-42.886 -6.33,-86.213 -5.85,-129.975 0.479,-43.764 3.53,-87.089 9.14,-129.977 5.6,-42.886 14.01,-82.713 25.23,-119.473 1.943,-5.252 4.628,-9.491 8.045,-12.69 3.404,-3.215 7.792,-4.241 13.162,-3.063 5.851,1.163 9.256,4.074 10.239,8.752 0.971,4.663 1.942,9.326 2.925,14.005 11.21,60.092 29.252,117.42 54.115,171.987 24.864,54.554 53.989,106.194 87.389,154.922 33.388,48.712 70.079,94.814 110.06,138.29 28.779,31.295 58.08,61.124 87.88,89.553 C 5.542,0.271 2.772,0.111 0,0"
             style="fill:#ffffff;fill-opacity:1;fill-rule:nonzero;stroke:none"
             id="path24" /></g><g
           id="g26"
           transform="translate(405.7184,569.8715)"><path
             d="m 0,0 c 4.627,8.452 10.113,15.891 16.453,22.319 9.748,9.914 16.204,15.605 19.38,17.067 3.165,1.45 4.502,0.725 4.022,-2.187 C 38.873,30.197 32.908,19.693 21.939,5.689 10.969,-8.315 -1.829,-21.157 -16.453,-32.823 -10.124,-19.407 -4.64,-8.466 0,0 m 217.574,330.585 c -4.154,-4.993 -8.184,-10.584 -12.082,-16.804 -6.581,-10.504 -12.557,-21.596 -17.916,-33.26 -5.371,-11.68 -9.507,-21.308 -12.432,-28.884 -11.701,-29.758 -21.825,-56.016 -30.349,-78.774 -8.536,-22.756 -16.214,-44.638 -23.036,-65.644 C 100.301,50.615 79.345,4.664 58.869,-30.634 38.392,-65.946 20.477,-91.616 5.119,-107.656 c -15.357,-16.057 -27.423,-23.346 -36.198,-21.882 -8.776,1.45 -11.953,10.639 -9.507,27.571 1.462,12.827 5.85,27.706 13.163,44.638 15.597,9.914 29.856,20.13 42.779,30.634 12.913,10.502 24.979,25.956 36.2,46.388 3.897,7.002 6.456,14.141 7.678,21.445 1.211,7.288 -0.857,14.441 -6.216,21.443 C 45.705,71.908 37.776,76.434 29.252,76.148 20.716,75.846 12.546,72.495 4.754,66.083 -16.215,48.577 -34.371,25.821 -49.727,-2.189 c -15.358,-28.008 -23.036,-59.516 -23.036,-94.526 0,-10.504 2.319,-21.594 6.946,-33.26 4.64,-11.68 12.558,-18.968 23.768,-21.882 9.255,-2.928 19.38,-1.027 30.348,5.689 10.969,6.702 22.053,16.481 33.275,29.32 11.208,12.828 22.418,27.858 33.638,45.076 11.21,17.204 21.448,35.147 30.715,53.829 -3.908,-14.592 -7.93,-30.197 -12.067,-46.827 -4.148,-16.63 -8.661,-34.571 -13.529,-53.827 -1.954,-7.004 -1.713,-14.881 0.732,-23.634 2.433,-8.752 6.581,-15.467 12.432,-20.13 3.895,-2.927 8.775,-5.252 14.626,-7.001 5.849,-1.751 11.448,0.573 16.818,7.001 4.868,5.252 11.45,14.004 19.745,26.259 8.285,12.253 17.06,25.82 26.327,40.698 9.255,14.88 18.156,30.046 26.693,45.514 8.524,15.454 15.231,29.021 20.11,40.699 2.433,6.414 1.827,10.641 -1.829,12.693 -3.657,2.036 -7.438,-0.151 -11.335,-6.565 -15.117,-24.508 -29.742,-48.879 -43.876,-73.085 -14.147,-24.22 -30.235,-46.827 -48.266,-67.831 9.747,40.26 20.35,80.659 31.811,121.223 11.45,40.548 23.641,80.524 36.565,119.91 12.911,39.386 26.439,77.461 40.586,114.221 14.134,36.762 29.001,71.184 44.608,103.28 0.481,1.164 1.211,2.914 2.194,5.252 0.971,2.325 1.943,4.376 2.925,6.128 0.798,1.469 1.474,2.863 2.032,4.185 -11.888,-0.067 -23.775,-0.045 -35.655,0.365"
             style="fill:#ffffff;fill-opacity:1;fill-rule:nonzero;stroke:none"
             id="path28" /></g><g
           id="g30"
           transform="translate(694.5746,604.0072)"><path
             d="m 0,0 c -1.714,-3.803 -5.849,-11.242 -12.432,-22.32 -6.581,-11.091 -16.453,-26.846 -29.617,-47.264 -13.163,-20.432 -31.205,-47.264 -54.115,-80.523 0.971,7.576 2.8,17.355 5.485,29.321 2.674,11.953 6.09,24.644 10.238,38.073 4.136,13.416 9.015,26.545 14.626,39.387 5.598,12.828 11.94,23.769 19.013,32.822 7.061,9.04 14.74,15.454 23.036,19.256 8.283,3.788 17.059,3.063 26.325,-2.189 C 2.559,5.976 1.703,3.788 0,0 m 148.802,297.251 c -10.775,1.811 -21.733,0.667 -32.581,1.517 -0.226,-0.25 -0.452,-0.487 -0.677,-0.743 -4.639,-5.252 -9.141,-11.529 -13.529,-18.818 -4.387,-7.303 -8.295,-14.743 -11.7,-22.319 C 75.689,225.379 61.909,191.243 48.997,154.483 36.073,117.721 22.053,75.997 6.948,29.321 c -4.389,4.075 -9.507,7.138 -15.357,9.189 -5.85,2.038 -12.066,3.201 -18.649,3.502 -6.581,0.287 -13.048,-0.301 -19.378,-1.751 -6.342,-1.463 -11.701,-3.938 -16.089,-7.44 -9.267,-7.59 -17.802,-17.368 -25.594,-29.321 -7.805,-11.966 -14.626,-24.807 -20.477,-38.511 -5.851,-13.717 -10.478,-27.871 -13.894,-42.45 -3.405,-14.592 -5.359,-28.596 -5.851,-42.012 -0.97,-4.677 -0.845,-10.504 0.366,-17.504 1.223,-7.004 3.051,-13.431 5.485,-19.256 1.462,-3.503 3.657,-6.868 6.581,-10.067 2.925,-3.215 6.102,-5.838 9.507,-7.878 3.406,-2.05 7.062,-3.212 10.97,-3.5 3.895,-0.301 7.552,1.013 10.969,3.938 10.238,15.755 21.813,34.422 34.736,56.017 12.911,21.581 24.978,41.137 36.198,58.642 l -24.863,-93.652 c -1.954,-7.003 -1.714,-14.881 0.731,-23.633 2.434,-8.752 6.582,-15.468 12.432,-20.131 3.897,-2.927 8.524,-4.814 13.894,-5.689 5.359,-0.874 10.238,2.189 14.626,9.19 4.868,8.165 11.701,18.517 20.477,31.074 8.775,12.54 17.664,25.667 26.691,39.385 9.015,13.704 17.791,27.708 26.327,42.013 8.524,14.291 15.231,27.27 20.11,38.949 2.434,6.414 1.462,10.502 -2.925,12.253 -4.388,1.751 -8.536,-0.588 -12.431,-7.002 -7.313,-12.253 -14.147,-23.782 -20.477,-34.572 -6.342,-10.805 -12.797,-21.307 -19.379,-31.51 -6.582,-10.216 -13.415,-20.281 -20.476,-30.197 -7.074,-9.928 -14.992,-20.13 -23.767,-30.634 19.985,80.524 41.318,158.272 63.987,233.257 22.671,74.971 49.602,144.555 80.808,208.749 0.481,1.163 1.211,2.914 2.194,5.252 0.971,2.325 1.943,4.376 2.925,6.127 1.408,2.595 2.421,4.946 3.083,7.079 -0.535,-0.07 -1.086,-0.068 -1.636,0.024"
             style="fill:#ffffff;fill-opacity:1;fill-rule:nonzero;stroke:none"
             id="path32" /></g><g
           id="g34"
           transform="translate(987.0805,564.1824)"><path
             d="m 0,0 c -0.251,3.5 -1.348,5.538 -3.29,6.126 -1.954,0.575 -4.274,0 -6.948,-1.75 -2.685,-1.75 -4.753,-4.09 -6.215,-7.002 -13.164,-24.508 -23.402,-43.188 -30.715,-56.016 -7.313,-12.842 -12.558,-21.006 -15.723,-24.508 -3.175,-3.502 -4.639,-2.926 -4.387,1.75 0.239,4.664 1.337,12.254 3.29,22.758 1.943,11.077 4.262,23.481 6.948,37.197 2.674,13.704 4.754,26.697 6.216,38.949 1.462,12.254 1.462,23.044 0,32.386 -1.462,9.326 -5.61,15.166 -12.432,17.504 -8.296,3.502 -16.214,3.639 -23.768,0.439 -7.564,-3.214 -14.019,-8.903 -19.378,-17.069 -5.85,-7.59 -13.163,-18.092 -21.939,-31.508 -8.775,-13.43 -17.803,-27.571 -27.057,-42.451 -9.267,-14.878 -17.917,-29.758 -25.961,-44.638 -8.045,-14.88 -14.512,-27.571 -19.379,-38.074 20.956,81.687 42.414,157.684 64.353,228.006 21.939,70.308 47.534,135.515 76.786,195.619 0.479,1.164 1.211,2.914 2.194,5.252 0.971,2.326 1.941,4.376 2.924,6.128 1.574,2.899 2.679,5.509 3.32,7.832 -8.81,1.053 -17.695,1.575 -26.533,0.648 -2.096,-0.22 -3.65,1.072 -4.406,2.783 -6.308,-6.503 -12.337,-14.342 -18.086,-23.517 -6.582,-10.504 -12.558,-21.594 -17.917,-33.26 -5.37,-11.68 -9.507,-21.307 -12.432,-28.884 -14.626,-36.76 -26.692,-68.707 -36.198,-95.841 -9.507,-27.132 -17.917,-53.978 -25.23,-80.524 -7.313,-26.558 -14.626,-54.703 -21.939,-84.463 -7.313,-29.758 -16.328,-65.356 -27.058,-106.78 -1.941,-7.004 -1.702,-14.881 0.732,-23.633 2.446,-8.753 6.581,-15.468 12.432,-20.131 3.908,-2.927 8.535,-4.814 13.894,-5.689 5.359,-0.874 10.239,2.189 14.626,9.19 3.897,8.752 9.142,19.831 15.723,33.259 6.581,13.418 13.769,27.571 21.572,42.451 7.794,14.88 15.598,29.609 23.403,44.201 7.792,14.578 15.105,27.132 21.937,37.636 6.822,10.504 12.799,18.08 17.917,22.756 5.119,4.664 8.411,4.952 9.873,0.876 1.462,-4.089 1.576,-10.504 0.365,-19.256 -1.222,-8.752 -2.925,-18.531 -5.119,-29.321 -2.194,-10.804 -4.273,-21.745 -6.216,-32.823 -1.953,-11.09 -2.924,-20.718 -2.924,-28.882 0,-6.428 1.702,-12.554 5.119,-18.382 3.405,-5.838 7.553,-10.215 12.431,-13.127 4.868,-2.927 9.987,-4.089 15.357,-3.503 5.359,0.576 9.987,4.378 13.895,11.379 9.255,13.417 18.762,28.583 28.52,45.513 9.746,16.918 17.551,31.798 23.401,44.64 C -1.097,-8.752 0.24,-3.502 0,0"
             style="fill:#ffffff;fill-opacity:1;fill-rule:nonzero;stroke:none"
             id="path36" /></g><g
           id="g38"
           transform="translate(1086.1693,604.4444)"><path
             d="m 0,0 c 2.433,5.826 6.583,9.914 12.432,12.254 5.849,2.324 11.573,3.063 17.184,2.187 5.599,-0.874 9.988,-3.214 13.165,-7.002 3.166,-3.801 3.291,-8.903 0.364,-15.317 -4.389,-9.34 -8.408,-20.432 -12.063,-33.26 -3.66,-12.841 -6.952,-26.121 -9.874,-39.823 -2.927,-13.718 -5.485,-27.134 -7.679,-40.262 -2.194,-13.128 -3.78,-24.659 -4.752,-34.573 -2.444,-19.845 0.727,-23.058 9.504,-9.629 13.643,18.08 25.108,38.799 34.373,62.145 9.255,23.33 19.254,44.924 29.98,64.768 5.855,9.916 11.21,13.13 16.092,9.628 4.867,-3.5 4.867,-10.216 0,-20.13 -4.882,-9.93 -9.873,-20.432 -14.995,-31.51 -5.116,-11.092 -10.238,-22.319 -15.354,-33.697 -5.121,-11.378 -10.368,-22.319 -15.723,-32.823 -5.371,-10.504 -10.97,-20.13 -16.82,-28.882 -3.416,-5.252 -7.679,-10.368 -12.801,-15.319 -5.116,-4.964 -10.362,-7.44 -15.717,-7.44 -8.777,-1.176 -15.359,1.314 -19.748,7.44 -4.388,6.127 -7.071,14.143 -8.043,24.071 -0.983,9.914 -0.858,21.005 0.364,33.26 1.211,12.252 2.802,24.069 4.752,35.447 1.944,11.378 4.024,21.581 6.218,30.634 2.195,9.04 3.531,15.605 4.025,19.693 l -40.223,-60.392 c -8.776,-13.43 -16.342,-23.633 -22.669,-30.634 -6.344,-7.003 -11.954,-12.117 -16.82,-15.318 -4.88,-3.213 -9.509,-4.527 -13.896,-3.938 -4.388,0.573 -9.026,1.752 -13.894,3.5 -9.256,4.666 -14.74,12.829 -16.454,24.508 -1.703,11.666 -2.068,22.168 -1.097,31.51 1.462,10.502 3.542,21.58 6.215,33.26 2.686,11.665 5.611,23.33 8.776,35.01 3.166,11.666 6.582,22.893 10.239,33.697 3.656,10.79 7.186,20.569 10.602,29.321 2.926,8.165 7.793,13.13 14.625,14.88 6.821,1.75 13.165,1.75 19.014,0 5.849,-1.75 9.38,-4.09 10.607,-7.002 1.211,-2.927 -0.13,-10.216 -4.024,-21.882 -1.461,-4.677 -4.877,-14.305 -10.238,-28.884 -5.371,-14.592 -10.487,-30.195 -15.359,-46.825 -4.877,-16.63 -8.899,-31.947 -12.062,-45.951 -3.179,-14.006 -3.293,-22.758 -0.37,-26.259 1.464,-1.749 4.869,0.287 10.241,6.127 5.357,5.826 11.446,13.567 18.283,23.195 6.822,9.628 14.132,20.267 21.936,31.947 7.794,11.665 14.865,22.605 21.209,32.821 6.327,10.203 11.449,18.668 15.359,25.384 C -1.222,-3.365 0.478,0 0,0"
             style="fill:#ffffff;fill-opacity:1;fill-rule:nonzero;stroke:none"
             id="path40" /></g><g
           id="g42"
           transform="translate(1192.9363,670.0886)"><path
             d="m 0,0 c 0.481,7.002 2.925,11.952 7.313,14.88 4.388,2.912 9.016,4.225 13.895,3.939 4.867,-0.302 9.141,-2.189 12.796,-5.689 3.658,-3.502 4.755,-7.878 3.291,-13.13 -1.952,-5.252 -5.118,-9.191 -9.507,-11.815 -4.385,-2.626 -8.774,-4.09 -13.162,-4.378 -4.388,-0.3 -8.171,0.876 -11.335,3.502 C 0.114,-10.065 -0.983,-5.84 0,0 m 61.428,-116.41 c -4.388,-9.34 -9.393,-19.405 -14.992,-30.195 -5.611,-10.805 -11.335,-21.745 -17.184,-32.823 -5.849,-11.092 -11.826,-21.445 -17.917,-31.071 -6.102,-9.63 -11.826,-17.657 -17.184,-24.071 -8.296,-11.09 -16.706,-15.617 -25.23,-13.567 -8.525,2.04 -14.26,9.192 -17.187,21.445 -1.461,7.576 -1.336,18.517 0.367,32.823 1.713,14.29 4.388,29.758 8.043,46.388 3.658,16.63 8.046,33.546 13.165,50.766 5.119,17.203 10.113,32.521 14.99,45.951 2.436,5.25 6.091,8.45 10.971,9.626 4.866,1.164 9.254,0.876 13.162,-0.874 3.897,-1.75 6.946,-4.964 9.14,-9.628 2.194,-4.678 2.069,-10.504 -0.364,-17.506 -5.371,-22.182 -11.334,-45.075 -17.917,-68.707 -6.582,-23.632 -14.02,-52.379 -22.305,-86.213 7.313,7.576 14.262,16.63 20.842,27.134 6.582,10.502 12.912,21.292 19.014,32.384 6.091,11.076 11.573,21.58 16.453,31.508 4.869,9.916 9.255,18.08 13.165,24.508 4.866,8.752 9.255,12.391 13.162,10.941 3.897,-1.464 3.164,-7.741 -2.194,-18.819"
             style="fill:#ffffff;fill-opacity:1;fill-rule:nonzero;stroke:none"
             id="path44" /></g><g
           id="g46"
           transform="translate(1279.22,673.5903)"><path
             d="m 0,0 c 5.852,-0.589 10.843,0.874 14.992,4.376 4.136,3.5 6.58,7.727 7.313,12.691 0.731,4.951 -0.127,9.765 -2.56,14.441 -2.444,4.664 -7.313,7.878 -14.626,9.628 -6.833,0.575 -11.826,-1.025 -14.99,-4.813 -3.177,-3.802 -4.88,-8.315 -5.119,-13.567 -0.252,-5.252 0.845,-10.216 3.289,-14.88 C -9.266,3.2 -5.369,0.574 0,0"
             style="fill:#ffffff;fill-opacity:1;fill-rule:nonzero;stroke:none"
             id="path48" /></g><g
           id="g50"
           transform="translate(1346.1335,566.3698)"><path
             d="m 0,0 c -0.73,2.626 -1.955,4.513 -3.658,5.69 -1.713,1.163 -3.416,1.6 -5.119,1.313 -1.713,-0.301 -3.291,-2.188 -4.752,-5.69 -5.371,-11.678 -10.365,-22.031 -14.992,-31.071 -4.638,-9.054 -9.632,-17.806 -14.99,-26.258 -5.371,-8.466 -11.335,-16.93 -17.917,-25.382 -6.583,-8.465 -14.26,-17.942 -23.036,-28.446 5.849,20.418 11.21,42.887 16.089,67.395 4.867,24.507 9.255,51.052 13.163,79.648 1.941,12.828 1.463,22.893 -1.464,30.197 -2.925,7.29 -7.313,11.515 -13.162,12.691 -6.833,1.162 -12.065,-0.876 -15.723,-6.126 -3.655,-5.252 -6.947,-14.594 -9.871,-28.009 -6.835,-33.849 -14.376,-70.609 -22.672,-110.283 -8.283,-39.688 -18.52,-79.21 -30.713,-118.599 -7.028,-22.722 -14.813,-44.796 -23.306,-66.257 14.011,1.275 28.314,1.026 42.632,-0.079 5.693,13.135 11.081,26.49 16.142,40.08 7.071,18.954 13.037,37.485 17.917,55.579 16.567,23.918 33.751,47.264 51.554,70.02 17.793,22.758 32.291,48.14 43.511,76.148 C 0.606,-5.115 0.73,-2.625 0,0"
             style="fill:#ffffff;fill-opacity:1;fill-rule:nonzero;stroke:none"
             id="path52" /></g><g
           id="g54"
           transform="translate(1487.2684,577.7493)"><path
             d="m 0,0 c -4.149,2.037 -8.171,-1.313 -12.068,-10.067 -9.757,-22.756 -19.264,-41.724 -28.518,-56.891 -9.269,-15.18 -16.581,-25.383 -21.939,-30.634 -3.908,12.828 -9.874,21.143 -17.917,24.945 -8.044,3.788 -15.243,5.101 -21.573,3.938 7.791,11.666 15.232,23.92 22.303,36.762 7.063,12.828 14.259,27.707 21.572,44.638 3.406,5.252 5.6,11.228 6.583,17.943 0.972,6.701 0.73,12.828 -0.731,18.38 -1.463,5.539 -4.149,10.202 -8.043,14.004 -3.908,3.788 -9.029,5.689 -15.359,5.689 -12.682,-0.588 -24.75,-5.552 -36.198,-14.88 -11.46,-9.34 -21.825,-21.156 -31.08,-35.447 -9.268,-14.305 -17.301,-29.622 -24.133,-45.951 -6.821,-16.343 -11.94,-31.81 -15.356,-46.389 -1.942,-6.428 -1.097,-11.529 2.558,-15.317 3.658,-3.802 8.171,-5.69 13.529,-5.69 5.371,0 8.776,0.439 10.24,1.313 1.461,0.876 3.164,4.514 5.119,10.941 9.746,29.76 20.475,56.154 32.176,79.211 11.701,23.044 24.611,39.524 38.759,49.453 6.33,4.663 9.619,3.5 9.871,-3.502 0.239,-7.002 -2.08,-16.055 -6.946,-27.132 -8.296,-18.094 -18.409,-35.312 -30.349,-51.64 -11.951,-16.344 -22.797,-32.974 -32.543,-49.89 -1.953,-4.09 -1.828,-9.054 0.366,-14.88 2.195,-5.838 5.233,-8.752 9.141,-8.752 2.433,0 4.752,0.725 6.946,2.189 2.194,1.447 4.503,2.761 6.949,3.937 4.386,1.163 9.141,0 14.26,-3.5 5.119,-3.5 7.188,-13.431 6.215,-29.76 -4.388,-4.676 -11.22,-12.692 -20.475,-24.07 -9.268,-11.378 -19.38,-24.37 -30.349,-38.949 -10.97,-14.591 -21.938,-30.346 -32.909,-47.264 -3.365,-5.193 -6.52,-10.337 -9.512,-15.444 5.478,1.335 12.037,0.033 17.284,-0.908 0.177,-0.032 0.335,-0.086 0.498,-0.134 1.476,2.564 2.98,5.14 4.528,7.734 7.313,12.255 14.993,24.206 23.036,35.885 8.044,11.666 16.329,22.607 24.864,32.823 8.524,10.202 16.453,19.392 23.766,27.571 -1.461,-14.004 -4.752,-29.322 -9.871,-45.952 -5.119,-16.63 -11.221,-33.122 -18.284,-49.45 -0.83,-1.919 -1.67,-3.824 -2.518,-5.718 5.504,-0.191 11.024,-0.211 16.497,-0.21 8.46,10e-4 16.726,0.958 25.125,-0.341 0.752,1.79 1.497,3.583 2.216,5.392 9.255,23.331 15.962,47.114 20.109,71.334 4.138,24.206 4.994,46.827 2.56,67.832 4.867,5.251 9.985,11.953 15.357,20.131 5.36,8.165 10.843,16.767 16.453,25.821 5.6,9.039 10.843,18.229 15.723,27.57 4.869,9.327 9.257,18.381 13.165,27.133 C 4.5,-7.441 4.136,-2.052 0,0"
             style="fill:#ffffff;fill-opacity:1;fill-rule:nonzero;stroke:none"
             id="path56" /></g><g
           id="g58"
           transform="translate(1534.4265,592.1906)"><path
             d="m 0,0 c -6.341,-6.428 -11.826,-13.867 -16.453,-22.319 -4.639,-8.466 -10.124,-19.407 -16.454,-32.823 14.626,11.666 27.422,24.508 38.392,38.512 10.968,14.004 16.935,24.508 17.918,31.51 0.477,2.912 -0.859,3.637 -4.022,2.187 C 16.204,15.605 9.746,9.914 0,0 m -57.04,-124.286 c -1.464,-12.256 -0.125,-19.995 4.022,-23.196 4.136,-3.213 10.237,-3.064 18.284,0.439 8.043,3.501 17.183,9.627 27.421,18.379 10.238,8.752 20.842,18.956 31.813,30.636 10.968,11.664 21.447,24.069 31.443,37.197 9.988,13.13 18.65,25.519 25.963,37.199 1.942,2.912 4.386,5.389 7.31,7.439 2.928,2.038 5.486,3.065 7.68,3.065 2.194,0 3.772,-1.313 4.755,-3.939 0.969,-2.626 0.478,-6.866 -1.464,-12.691 -2.447,-6.428 -6.832,-14.743 -13.162,-24.945 -6.343,-10.216 -14.02,-21.006 -23.036,-32.386 -9.026,-11.378 -18.9,-22.907 -29.618,-34.571 -10.73,-11.68 -21.573,-21.746 -32.543,-30.197 -10.969,-8.465 -21.698,-14.879 -32.177,-19.256 -10.487,-4.378 -19.87,-5.401 -28.155,-3.063 -11.207,2.914 -19.125,10.202 -23.766,21.882 -4.627,11.666 -6.946,22.756 -6.946,33.26 0,35.01 7.679,66.518 23.036,94.526 15.356,28.01 33.512,50.766 54.479,68.272 7.793,6.412 15.964,9.763 24.499,10.065 8.525,0.286 16.454,-4.24 23.767,-13.567 5.36,-7.002 7.427,-14.155 6.216,-21.443 C 41.559,11.515 38.998,4.376 35.101,-2.626 23.88,-23.058 11.815,-38.512 -1.097,-49.014 -14.02,-59.518 -28.28,-69.734 -43.878,-79.648 -51.191,-96.58 -55.576,-111.459 -57.04,-124.286"
             style="fill:#ffffff;fill-opacity:1;fill-rule:nonzero;stroke:none"
             id="path60" /></g><g
           id="g62"
           transform="translate(1809.2299,548.4948)"><path
             d="M 0,0 C 0.26,4.374 0.193,8.733 0.05,13.09 -6.831,1.229 -13.987,-11.173 -21.413,-24.137 -29.948,-39.016 -37.753,-52.145 -44.816,-63.523 -51.887,-74.901 -57.612,-83.368 -62,-88.905 c -4.388,-5.554 -6.341,-5.991 -5.852,-1.315 0.972,7.004 3.291,16.481 6.949,28.447 3.655,11.952 7.552,24.357 11.702,37.199 4.135,12.828 7.918,25.082 11.334,36.76 3.405,11.666 5.597,21.006 6.58,28.009 0.481,5.251 -0.492,10.201 -2.925,14.879 -2.444,4.664 -5.61,8.603 -9.507,11.817 -3.907,3.2 -8.41,4.95 -13.529,5.251 -5.118,0.287 -10.123,-1.614 -14.989,-5.69 -8.777,-7.002 -17.187,-15.317 -25.231,-24.945 -8.043,-9.627 -16.089,-19.844 -24.133,-30.634 -8.043,-10.804 -15.972,-21.594 -23.766,-32.384 -7.804,-10.804 -16.09,-20.869 -24.863,-30.197 l 10.237,36.762 28.521,76.148 c 1.462,5.824 1.337,10.351 -0.366,13.565 -1.714,3.2 -5.005,6.565 -9.874,10.066 -5.369,4.075 -10.123,5.69 -14.259,4.814 -4.147,-0.876 -8.41,-4.814 -12.799,-11.816 -9.265,-16.343 -17.183,-33.847 -23.766,-52.515 -6.58,-18.682 -11.574,-37.938 -14.99,-57.768 -1.463,-9.928 -1.097,-20.432 1.097,-31.508 2.192,-11.093 7.93,-18.683 17.184,-22.757 5.361,-2.341 9.988,-2.626 13.896,-0.877 3.897,1.752 9.985,8.166 18.281,19.256 7.313,9.916 15.473,21.445 24.499,34.573 9.016,13.13 17.79,25.67 26.325,37.636 8.524,11.954 16.089,21.731 22.672,29.321 6.58,7.578 10.601,10.792 12.065,9.628 1.464,-0.588 0.731,-6.126 -2.194,-16.63 -2.925,-10.502 -6.341,-22.907 -10.238,-37.197 -3.907,-14.306 -7.679,-29.035 -11.334,-44.201 -3.658,-15.18 -5.736,-27.435 -6.216,-36.761 0,-6.427 1.211,-12.116 3.655,-17.067 2.436,-4.966 5.852,-8.755 10.237,-11.381 4.389,-2.623 9.383,-3.5 14.993,-2.623 5.599,0.875 11.085,3.938 16.453,9.19 4.389,5.824 9.874,14.004 16.454,24.507 6.582,10.501 13.404,21.579 20.478,33.259 7.06,11.666 13.643,23.195 19.745,34.573 0.197,0.369 0.385,0.719 0.58,1.083 C -1.026,-13.984 -0.393,-6.607 0,0"
             style="fill:#ffffff;fill-opacity:1;fill-rule:nonzero;stroke:none"
             id="path64" /></g></g></g><text
       transform="matrix(0.87299029,0,0,-1,80.6641,207.5928)"
       style="font-variant:normal;font-weight:100;font-stretch:normal;font-size:140.903px;font-family:'Komet Thin SC';-inkscape-font-specification:Komet-ThinSC;writing-mode:lr-tb;fill:#ffffff;fill-opacity:1;fill-rule:nonzero;stroke:none"
       id="text68"><tspan
         x="0 119.06337 246.29915 342.25436 442.71848 510.35211 599.74121 701.61438 793.06067 860.69434 957.07227 1051.7594 1123.4791 1237.1882 1308.9081 1400.5094 1501.2552 1609.8918 1677.5254 1768.9717 1836.6053 1932.9833 2027.6704"
         y="0"
         sodipodi:role="line"
         id="tspan66">hospitality &amp; facility </tspan></text><g
       id="g70"><g
         id="g72"
         clip-path="url(#clipPath76)"><path
           d="M 1803.925,318.411 H 113.25 V 896.8 h 1690.675 z"
           style="fill:none;stroke:#ffffff;stroke-width:22;stroke-linecap:butt;stroke-linejoin:miter;stroke-miterlimit:10;stroke-dasharray:none;stroke-opacity:1"
           id="path78" /></g></g></g></svg>
