<?xml version="1.0" encoding="UTF-8"?>
<svg id="Layer_1" data-name="Layer 1" xmlns="http://www.w3.org/2000/svg" viewBox="0 0 1722 737.41">
  <defs>
    <style>
      .cls-1 {
        letter-spacing: .91em;
      }

      .cls-2, .cls-3 {
        fill: #1b1b1b;
      }

      .cls-4 {
        letter-spacing: .96em;
      }

      .cls-5 {
        letter-spacing: .96em;
      }

      .cls-6 {
        font-family: MyriadPro-Regular, 'Myriad Pro';
        font-size: 12px;
      }

      .cls-7 {
        letter-spacing: -.01em;
      }

      .cls-8 {
        letter-spacing: 0em;
      }

      .cls-9 {
        fill: none;
        stroke: #1b1b1b;
        stroke-miterlimit: 10;
        stroke-width: 22px;
      }

      .cls-3 {
        font-family: -apple-system, BlinkMacSystemFont, 'Segoe UI', Roboto, Oxygen, Ubuntu, Cantarell, 'Open Sans', 'Helvetica Neue', sans-serif, 'Roboto';
        font-size: 140.9px;
        font-weight: 200;
      }

      .cls-10 {
        letter-spacing: .96em;
      }

      .cls-11 {
        letter-spacing: -.01em;
      }
    </style>
  </defs>
  <g>
    <path class="cls-2" d="M438.53,8.17c-.58,.06-1.16,.1-1.73,.16-.5,.06-.95,.02-1.37-.06-5.1,.14-10.21,.15-15.33,.12-22.55,20.95-44.76,42.67-66.62,65.2-38.76,39.97-74.84,82.58-108.23,127.79-33.4,45.23-63.26,93.37-89.58,144.42-26.33,51.07-47.29,105.77-62.89,164.11-5.37-32.67-8.3-67.24-8.78-103.72-.49-36.46,.37-73.66,2.56-111.6,2.19-37.92,5.48-75.71,9.87-113.35,4.39-37.64,8.78-74.25,13.16-109.85,.97-6.41,.84-12.25-.37-17.5-1.22-5.25-4.51-9.33-9.87-12.25-9.27-2.91-16.95-1.31-23.03,4.81-6.1,6.13-10.36,13.87-12.8,23.19-8.29,37.35-14.63,77.46-19.01,120.35-4.39,42.89-6.33,86.21-5.85,129.98,.48,43.76,3.53,87.09,9.14,129.98,5.6,42.89,14.01,82.71,25.23,119.47,1.94,5.25,4.63,9.49,8.04,12.69,3.4,3.22,7.79,4.24,13.16,3.06,5.85-1.16,9.26-4.07,10.24-8.75,.97-4.66,1.94-9.33,2.92-14,11.21-60.09,29.25-117.42,54.12-171.99,24.86-54.55,53.99-106.19,87.39-154.92,33.39-48.71,70.08-94.81,110.06-138.29,28.78-31.29,58.08-61.12,87.88-89.55-2.77,.22-5.54,.38-8.31,.49Z"/>
    <path class="cls-2" d="M535.21,7.34c-4.15,4.99-8.18,10.58-12.08,16.8-6.58,10.5-12.56,21.6-17.92,33.26-5.37,11.68-9.51,21.31-12.43,28.88-11.7,29.76-21.82,56.02-30.35,78.77-8.54,22.76-16.21,44.64-23.04,65.64-21.46,56.6-42.41,102.56-62.89,137.85-20.48,35.31-38.39,60.98-53.75,77.02-15.36,16.06-27.42,23.35-36.2,21.88-8.78-1.45-11.95-10.64-9.51-27.57,1.46-12.83,5.85-27.71,13.16-44.64,15.6-9.91,29.86-20.13,42.78-30.63,12.91-10.5,24.98-25.96,36.2-46.39,3.9-7,6.46-14.14,7.68-21.44,1.21-7.29-.86-14.44-6.22-21.44-7.31-9.33-15.24-13.85-23.77-13.57-8.54,.3-16.71,3.65-24.5,10.07-20.97,17.51-39.12,40.26-54.48,68.27-15.36,28.01-23.04,59.52-23.04,94.53,0,10.5,2.32,21.59,6.95,33.26,4.64,11.68,12.56,18.97,23.77,21.88,9.25,2.93,19.38,1.03,30.35-5.69,10.97-6.7,22.05-16.48,33.27-29.32,11.21-12.83,22.42-27.86,33.64-45.08,11.21-17.2,21.45-35.15,30.71-53.83-3.91,14.59-7.93,30.2-12.07,46.83-4.15,16.63-8.66,34.57-13.53,53.83-1.95,7-1.71,14.88,.73,23.63,2.43,8.75,6.58,15.47,12.43,20.13,3.9,2.93,8.78,5.25,14.63,7,5.85,1.75,11.45-.57,16.82-7,4.87-5.25,11.45-14,19.74-26.26,8.29-12.25,17.06-25.82,26.33-40.7,9.25-14.88,18.16-30.05,26.69-45.51,8.52-15.45,15.23-29.02,20.11-40.7,2.43-6.41,1.83-10.64-1.83-12.69-3.66-2.04-7.44,.15-11.33,6.56-15.12,24.51-29.74,48.88-43.88,73.08-14.15,24.22-30.23,46.83-48.27,67.83,9.75-40.26,20.35-80.66,31.81-121.22,11.45-40.55,23.64-80.52,36.56-119.91,12.91-39.39,26.44-77.46,40.59-114.22,14.13-36.76,29-71.18,44.61-103.28,.48-1.16,1.21-2.91,2.19-5.25,.97-2.32,1.94-4.38,2.92-6.13,.8-1.47,1.47-2.86,2.03-4.19-11.89,.07-23.77,.04-35.65-.36Zm-217.57,330.58c4.63-8.45,10.11-15.89,16.45-22.32,9.75-9.91,16.2-15.6,19.38-17.07,3.16-1.45,4.5-.73,4.02,2.19-.98,7-6.95,17.51-17.92,31.51-10.97,14-23.77,26.85-38.39,38.51,6.33-13.42,11.81-24.36,16.45-32.82Z"/>
    <path class="cls-2" d="M755.3,6.54c-10.78-1.81-21.73-.67-32.58-1.52-.23,.25-.45,.49-.68,.74-4.64,5.25-9.14,11.53-13.53,18.82-4.39,7.3-8.29,14.74-11.7,22.32-14.63,31.51-28.41,65.64-41.32,102.4-12.92,36.76-26.94,78.49-42.05,125.16-4.39-4.07-9.51-7.14-15.36-9.19-5.85-2.04-12.07-3.2-18.65-3.5-6.58-.29-13.05,.3-19.38,1.75-6.34,1.46-11.7,3.94-16.09,7.44-9.27,7.59-17.8,17.37-25.59,29.32-7.8,11.97-14.63,24.81-20.48,38.51-5.85,13.72-10.48,27.87-13.89,42.45-3.41,14.59-5.36,28.6-5.85,42.01-.97,4.68-.85,10.5,.37,17.5,1.22,7,3.05,13.43,5.49,19.26,1.46,3.5,3.66,6.87,6.58,10.07,2.92,3.22,6.1,5.84,9.51,7.88,3.41,2.05,7.06,3.21,10.97,3.5,3.9,.3,7.55-1.01,10.97-3.94,10.24-15.76,21.81-34.42,34.74-56.02,12.91-21.58,24.98-41.14,36.2-58.64l-24.86,93.65c-1.95,7-1.71,14.88,.73,23.63,2.43,8.75,6.58,15.47,12.43,20.13,3.9,2.93,8.52,4.81,13.89,5.69,5.36,.87,10.24-2.19,14.63-9.19,4.87-8.17,11.7-18.52,20.48-31.07,8.78-12.54,17.66-25.67,26.69-39.38,9.02-13.7,17.79-27.71,26.33-42.01,8.52-14.29,15.23-27.27,20.11-38.95,2.43-6.41,1.46-10.5-2.92-12.25-4.39-1.75-8.54,.59-12.43,7-7.31,12.25-14.15,23.78-20.48,34.57-6.34,10.81-12.8,21.31-19.38,31.51-6.58,10.22-13.41,20.28-20.48,30.2-7.07,9.93-14.99,20.13-23.77,30.63,19.98-80.52,41.32-158.27,63.99-233.26,22.67-74.97,49.6-144.56,80.81-208.75,.48-1.16,1.21-2.91,2.19-5.25,.97-2.32,1.94-4.38,2.92-6.13,1.41-2.6,2.42-4.95,3.08-7.08-.53,.07-1.09,.07-1.64-.02Zm-148.8,297.25c-1.71,3.8-5.85,11.24-12.43,22.32-6.58,11.09-16.45,26.85-29.62,47.26-13.16,20.43-31.21,47.26-54.12,80.52,.97-7.58,2.8-17.36,5.49-29.32,2.67-11.95,6.09-24.64,10.24-38.07,4.14-13.42,9.02-26.54,14.63-39.39,5.6-12.83,11.94-23.77,19.01-32.82,7.06-9.04,14.74-15.45,23.04-19.26,8.28-3.79,17.06-3.06,26.33,2.19,0,.59-.86,2.78-2.56,6.56Z"/>
    <path class="cls-2" d="M899,343.62c-.25-3.5-1.35-5.54-3.29-6.13-1.95-.57-4.27,0-6.95,1.75-2.69,1.75-4.75,4.09-6.22,7-13.16,24.51-23.4,43.19-30.71,56.02-7.31,12.84-12.56,21.01-15.72,24.51-3.18,3.5-4.64,2.93-4.39-1.75,.24-4.66,1.34-12.25,3.29-22.76,1.94-11.08,4.26-23.48,6.95-37.2,2.67-13.7,4.75-26.7,6.22-38.95,1.46-12.25,1.46-23.04,0-32.39-1.46-9.33-5.61-15.17-12.43-17.5-8.3-3.5-16.21-3.64-23.77-.44-7.56,3.21-14.02,8.9-19.38,17.07-5.85,7.59-13.16,18.09-21.94,31.51-8.78,13.43-17.8,27.57-27.06,42.45-9.27,14.88-17.92,29.76-25.96,44.64-8.04,14.88-14.51,27.57-19.38,38.07,20.96-81.69,42.41-157.68,64.35-228.01,21.94-70.31,47.53-135.52,76.79-195.62,.48-1.16,1.21-2.91,2.19-5.25,.97-2.33,1.94-4.38,2.92-6.13,1.57-2.9,2.68-5.51,3.32-7.83-8.81-1.05-17.69-1.58-26.53-.65-2.1,.22-3.65-1.07-4.41-2.78-6.31,6.5-12.34,14.34-18.09,23.52-6.58,10.5-12.56,21.59-17.92,33.26-5.37,11.68-9.51,21.31-12.43,28.88-14.63,36.76-26.69,68.71-36.2,95.84-9.51,27.13-17.92,53.98-25.23,80.52-7.31,26.56-14.63,54.7-21.94,84.46-7.31,29.76-16.33,65.36-27.06,106.78-1.94,7-1.7,14.88,.73,23.63,2.45,8.75,6.58,15.47,12.43,20.13,3.91,2.93,8.53,4.81,13.89,5.69s10.24-2.19,14.63-9.19c3.9-8.75,9.14-19.83,15.72-33.26,6.58-13.42,13.77-27.57,21.57-42.45,7.79-14.88,15.6-29.61,23.4-44.2,7.79-14.58,15.11-27.13,21.94-37.64,6.82-10.5,12.8-18.08,17.92-22.76,5.12-4.66,8.41-4.95,9.87-.88,1.46,4.09,1.58,10.5,.37,19.26-1.22,8.75-2.92,18.53-5.12,29.32-2.19,10.8-4.27,21.74-6.22,32.82-1.95,11.09-2.92,20.72-2.92,28.88,0,6.43,1.7,12.55,5.12,18.38,3.41,5.84,7.55,10.22,12.43,13.13,4.87,2.93,9.99,4.09,15.36,3.5,5.36-.58,9.99-4.38,13.9-11.38,9.25-13.42,18.76-28.58,28.52-45.51,9.75-16.92,17.55-31.8,23.4-44.64,2.92-7,4.26-12.25,4.02-15.75Z"/>
    <path class="cls-2" d="M998.09,303.36c2.43-5.83,6.58-9.91,12.43-12.25,5.85-2.32,11.57-3.06,17.18-2.19,5.6,.87,9.99,3.21,13.16,7,3.17,3.8,3.29,8.9,.36,15.32-4.39,9.34-8.41,20.43-12.06,33.26-3.66,12.84-6.95,26.12-9.87,39.82-2.93,13.72-5.49,27.13-7.68,40.26-2.19,13.13-3.78,24.66-4.75,34.57-2.44,19.85,.73,23.06,9.5,9.63,13.64-18.08,25.11-38.8,34.37-62.15,9.25-23.33,19.25-44.92,29.98-64.77,5.85-9.92,11.21-13.13,16.09-9.63,4.87,3.5,4.87,10.22,0,20.13-4.88,9.93-9.87,20.43-15,31.51-5.12,11.09-10.24,22.32-15.35,33.7-5.12,11.38-10.37,22.32-15.72,32.82-5.37,10.5-10.97,20.13-16.82,28.88-3.42,5.25-7.68,10.37-12.8,15.32-5.12,4.96-10.36,7.44-15.72,7.44-8.78,1.18-15.36-1.31-19.75-7.44s-7.07-14.14-8.04-24.07c-.98-9.91-.86-21,.36-33.26,1.21-12.25,2.8-24.07,4.75-35.45,1.94-11.38,4.02-21.58,6.22-30.63,2.19-9.04,3.53-15.6,4.02-19.69l-40.22,60.39c-8.78,13.43-16.34,23.63-22.67,30.63-6.34,7-11.95,12.12-16.82,15.32-4.88,3.21-9.51,4.53-13.9,3.94-4.39-.57-9.03-1.75-13.89-3.5-9.26-4.67-14.74-12.83-16.45-24.51-1.7-11.67-2.07-22.17-1.1-31.51,1.46-10.5,3.54-21.58,6.22-33.26,2.69-11.66,5.61-23.33,8.78-35.01,3.17-11.67,6.58-22.89,10.24-33.7,3.66-10.79,7.19-20.57,10.6-29.32,2.93-8.16,7.79-13.13,14.62-14.88,6.82-1.75,13.16-1.75,19.01,0,5.85,1.75,9.38,4.09,10.61,7,1.21,2.93-.13,10.22-4.02,21.88-1.46,4.68-4.88,14.31-10.24,28.88-5.37,14.59-10.49,30.2-15.36,46.83-4.88,16.63-8.9,31.95-12.06,45.95-3.18,14.01-3.29,22.76-.37,26.26,1.46,1.75,4.87-.29,10.24-6.13,5.36-5.83,11.45-13.57,18.28-23.19,6.82-9.63,14.13-20.27,21.94-31.95,7.79-11.66,14.86-22.61,21.21-32.82,6.33-10.2,11.45-18.67,15.36-25.38,3.89-6.7,5.59-10.07,5.12-10.07Z"/>
    <path class="cls-2" d="M1166.28,354.12c-4.39,9.34-9.39,19.41-14.99,30.2-5.61,10.81-11.33,21.74-17.18,32.82-5.85,11.09-11.83,21.44-17.92,31.07-6.1,9.63-11.83,17.66-17.18,24.07-8.3,11.09-16.71,15.62-25.23,13.57-8.52-2.04-14.26-9.19-17.19-21.44-1.46-7.58-1.34-18.52,.37-32.82,1.71-14.29,4.39-29.76,8.04-46.39,3.66-16.63,8.05-33.55,13.16-50.77,5.12-17.2,10.11-32.52,14.99-45.95,2.44-5.25,6.09-8.45,10.97-9.63,4.87-1.16,9.25-.88,13.16,.87,3.9,1.75,6.95,4.96,9.14,9.63,2.19,4.68,2.07,10.5-.36,17.51-5.37,22.18-11.33,45.08-17.92,68.71-6.58,23.63-14.02,52.38-22.31,86.21,7.31-7.58,14.26-16.63,20.84-27.13,6.58-10.5,12.91-21.29,19.01-32.38,6.09-11.08,11.57-21.58,16.45-31.51,4.87-9.92,9.25-18.08,13.16-24.51,4.87-8.75,9.25-12.39,13.16-10.94,3.9,1.46,3.16,7.74-2.19,18.82Zm-61.43-116.41c.48-7,2.92-11.95,7.31-14.88,4.39-2.91,9.02-4.23,13.9-3.94,4.87,.3,9.14,2.19,12.8,5.69,3.66,3.5,4.75,7.88,3.29,13.13-1.95,5.25-5.12,9.19-9.51,11.82-4.39,2.63-8.77,4.09-13.16,4.38-4.39,.3-8.17-.88-11.33-3.5-3.18-2.63-4.27-6.85-3.29-12.69Z"/>
    <path class="cls-2" d="M1191.14,234.21c5.85,.59,10.84-.87,14.99-4.38,4.14-3.5,6.58-7.73,7.31-12.69,.73-4.95-.13-9.77-2.56-14.44-2.44-4.66-7.31-7.88-14.63-9.63-6.83-.57-11.83,1.03-14.99,4.81-3.18,3.8-4.88,8.31-5.12,13.57-.25,5.25,.84,10.22,3.29,14.88,2.44,4.68,6.33,7.3,11.7,7.88Z"/>
    <path class="cls-2" d="M1258.05,341.43c-.73-2.63-1.96-4.51-3.66-5.69-1.71-1.16-3.42-1.6-5.12-1.31-1.71,.3-3.29,2.19-4.75,5.69-5.37,11.68-10.37,22.03-14.99,31.07-4.64,9.05-9.63,17.81-14.99,26.26-5.37,8.47-11.33,16.93-17.92,25.38-6.58,8.46-14.26,17.94-23.04,28.45,5.85-20.42,11.21-42.89,16.09-67.39,4.87-24.51,9.25-51.05,13.16-79.65,1.94-12.83,1.46-22.89-1.46-30.2-2.92-7.29-7.31-11.52-13.16-12.69-6.83-1.16-12.07,.88-15.72,6.13-3.66,5.25-6.95,14.59-9.87,28.01-6.84,33.85-14.38,70.61-22.67,110.28-8.28,39.69-18.52,79.21-30.71,118.6-7.03,22.72-14.81,44.8-23.31,66.26,14.01-1.28,28.31-1.03,42.63,.08,5.69-13.14,11.08-26.49,16.14-40.08,7.07-18.95,13.04-37.49,17.92-55.58,16.57-23.92,33.75-47.26,51.55-70.02,17.79-22.76,32.29-48.14,43.51-76.15,.97-2.32,1.1-4.81,.37-7.44Z"/>
    <path class="cls-2" d="M1399.19,330.05c-4.15-2.04-8.17,1.31-12.07,10.07-9.76,22.76-19.26,41.72-28.52,56.89-9.27,15.18-16.58,25.38-21.94,30.63-3.91-12.83-9.87-21.14-17.92-24.94-8.04-3.79-15.24-5.1-21.57-3.94,7.79-11.67,15.23-23.92,22.3-36.76,7.06-12.83,14.26-27.71,21.57-44.64,3.41-5.25,5.6-11.23,6.58-17.94,.97-6.7,.73-12.83-.73-18.38-1.46-5.54-4.15-10.2-8.04-14-3.91-3.79-9.03-5.69-15.36-5.69-12.68,.59-24.75,5.55-36.2,14.88-11.46,9.34-21.82,21.16-31.08,35.45-9.27,14.31-17.3,29.62-24.13,45.95-6.82,16.34-11.94,31.81-15.36,46.39-1.94,6.43-1.1,11.53,2.56,15.32,3.66,3.8,8.17,5.69,13.53,5.69s8.78-.44,10.24-1.31c1.46-.88,3.16-4.51,5.12-10.94,9.75-29.76,20.48-56.15,32.18-79.21,11.7-23.04,24.61-39.52,38.76-49.45,6.33-4.66,9.62-3.5,9.87,3.5,.24,7-2.08,16.06-6.95,27.13-8.3,18.09-18.41,35.31-30.35,51.64-11.95,16.34-22.8,32.97-32.54,49.89-1.95,4.09-1.83,9.05,.37,14.88,2.19,5.84,5.23,8.75,9.14,8.75,2.43,0,4.75-.73,6.95-2.19,2.19-1.45,4.5-2.76,6.95-3.94,4.39-1.16,9.14,0,14.26,3.5,5.12,3.5,7.19,13.43,6.22,29.76-4.39,4.68-11.22,12.69-20.48,24.07-9.27,11.38-19.38,24.37-30.35,38.95-10.97,14.59-21.94,30.35-32.91,47.26-3.36,5.19-6.52,10.34-9.51,15.44,5.48-1.33,12.04-.03,17.28,.91,.18,.03,.33,.09,.5,.13,1.48-2.56,2.98-5.14,4.53-7.73,7.31-12.26,14.99-24.21,23.04-35.89,8.04-11.67,16.33-22.61,24.86-32.82,8.52-10.2,16.45-19.39,23.77-27.57-1.46,14-4.75,29.32-9.87,45.95-5.12,16.63-11.22,33.12-18.28,49.45-.83,1.92-1.67,3.82-2.52,5.72,5.5,.19,11.02,.21,16.5,.21,8.46,0,16.73-.96,25.12,.34,.75-1.79,1.5-3.58,2.22-5.39,9.25-23.33,15.96-47.11,20.11-71.33,4.14-24.21,4.99-46.83,2.56-67.83,4.87-5.25,9.98-11.95,15.36-20.13,5.36-8.16,10.84-16.77,16.45-25.82,5.6-9.04,10.84-18.23,15.72-27.57,4.87-9.33,9.26-18.38,13.17-27.13,3.4-8.75,3.04-14.14-1.1-16.19Z"/>
    <path class="cls-2" d="M1389.31,439.9c-1.46,12.26-.12,19.99,4.02,23.2,4.14,3.21,10.24,3.06,18.28-.44,8.04-3.5,17.18-9.63,27.42-18.38,10.24-8.75,20.84-18.96,31.81-30.64,10.97-11.66,21.45-24.07,31.44-37.2,9.99-13.13,18.65-25.52,25.96-37.2,1.94-2.91,4.39-5.39,7.31-7.44,2.93-2.04,5.49-3.06,7.68-3.06s3.77,1.31,4.75,3.94c.97,2.63,.48,6.87-1.46,12.69-2.45,6.43-6.83,14.74-13.16,24.94-6.34,10.22-14.02,21.01-23.04,32.39-9.03,11.38-18.9,22.91-29.62,34.57-10.73,11.68-21.57,21.75-32.54,30.2-10.97,8.46-21.7,14.88-32.18,19.26-10.49,4.38-19.87,5.4-28.15,3.06-11.21-2.91-19.13-10.2-23.77-21.88-4.63-11.67-6.95-22.76-6.95-33.26,0-35.01,7.68-66.52,23.04-94.53,15.36-28.01,33.51-50.77,54.48-68.27,7.79-6.41,15.96-9.76,24.5-10.07,8.52-.29,16.45,4.24,23.77,13.57,5.36,7,7.43,14.15,6.22,21.44-1.22,7.3-3.78,14.44-7.68,21.44-11.22,20.43-23.29,35.89-36.2,46.39-12.92,10.5-27.18,20.72-42.78,30.63-7.31,16.93-11.7,31.81-13.16,44.64Zm57.04-124.29c-6.34,6.43-11.83,13.87-16.45,22.32-4.64,8.47-10.12,19.41-16.45,32.82,14.63-11.67,27.42-24.51,38.39-38.51,10.97-14,16.93-24.51,17.92-31.51,.48-2.91-.86-3.64-4.02-2.19-3.18,1.46-9.63,7.15-19.38,17.07Z"/>
    <path class="cls-2" d="M1721.15,359.3c.26-4.37,.19-8.73,.05-13.09-6.88,11.86-14.04,24.26-21.46,37.23-8.53,14.88-16.34,28.01-23.4,39.39-7.07,11.38-12.8,19.85-17.18,25.38-4.39,5.55-6.34,5.99-5.85,1.31,.97-7,3.29-16.48,6.95-28.45,3.66-11.95,7.55-24.36,11.7-37.2,4.14-12.83,7.92-25.08,11.33-36.76,3.41-11.67,5.6-21.01,6.58-28.01,.48-5.25-.49-10.2-2.92-14.88-2.44-4.66-5.61-8.6-9.51-11.82-3.91-3.2-8.41-4.95-13.53-5.25-5.12-.29-10.12,1.61-14.99,5.69-8.78,7-17.19,15.32-25.23,24.94-8.04,9.63-16.09,19.84-24.13,30.63-8.04,10.8-15.97,21.59-23.77,32.38-7.8,10.8-16.09,20.87-24.86,30.2l10.24-36.76,28.52-76.15c1.46-5.82,1.34-10.35-.37-13.57-1.71-3.2-5-6.56-9.87-10.07-5.37-4.07-10.12-5.69-14.26-4.81-4.15,.88-8.41,4.81-12.8,11.82-9.27,16.34-17.18,33.85-23.77,52.52-6.58,18.68-11.57,37.94-14.99,57.77-1.46,9.93-1.1,20.43,1.1,31.51,2.19,11.09,7.93,18.68,17.18,22.76,5.36,2.34,9.99,2.63,13.9,.88,3.9-1.75,9.98-8.17,18.28-19.26,7.31-9.92,15.47-21.44,24.5-34.57,9.02-13.13,17.79-25.67,26.32-37.64,8.52-11.95,16.09-21.73,22.67-29.32,6.58-7.58,10.6-10.79,12.07-9.63,1.46,.59,.73,6.13-2.19,16.63-2.92,10.5-6.34,22.91-10.24,37.2-3.91,14.31-7.68,29.03-11.33,44.2-3.66,15.18-5.74,27.44-6.22,36.76,0,6.43,1.21,12.12,3.66,17.07,2.44,4.97,5.85,8.75,10.24,11.38,4.39,2.62,9.38,3.5,14.99,2.62,5.6-.87,11.08-3.94,16.45-9.19,4.39-5.82,9.87-14,16.45-24.51,6.58-10.5,13.4-21.58,20.48-33.26,7.06-11.67,13.64-23.19,19.74-34.57,.2-.37,.39-.72,.58-1.08-2.13-6.44-1.5-13.82-1.11-20.43Z"/>
  </g>
  <text class="cls-3" transform="translate(-11 725) scale(.814 1)"><tspan class="cls-10" x="0" y="0">HOSPITALITY</tspan></text>
  <rect class="cls-9"  x="11" y="11" width="1700" height="578.39"/>
  <text/>
</svg>